<?xml version="1.0" standalone="no"?>
<!DOCTYPE svg PUBLIC "-//W3C//DTD SVG 20010904//EN"
 "http://www.w3.org/TR/2001/REC-SVG-20010904/DTD/svg10.dtd">
<svg version="1.0" xmlns="http://www.w3.org/2000/svg"
 width="432.000000pt" height="577.000000pt" viewBox="0 0 432.000000 577.000000"
 preserveAspectRatio="xMidYMid meet">

<g transform="translate(0.000000,577.000000) scale(0.100000,-0.100000)"
fill="#000000" stroke="none">
<path d="M2640 5091 c-5 -11 -10 -26 -10 -33 1 -7 7 -2 14 11 8 14 22 28 32
32 17 7 17 8 -3 8 -12 1 -27 -8 -33 -18z"/>
<path d="M2685 5029 c-4 -6 -5 -13 -2 -16 7 -7 27 6 27 18 0 12 -17 12 -25 -2z"/>
<path d="M2893 5025 c-14 -10 -24 -12 -28 -5 -11 18 -35 10 -45 -15 -6 -16
-15 -23 -24 -19 -8 3 -20 3 -26 -1 -16 -10 17 -45 42 -45 11 0 18 -7 18 -20 0
-24 -35 -40 -86 -40 -19 0 -34 -5 -34 -11 0 -12 -51 -8 -83 6 -14 6 -18 4 -15
-9 2 -10 -8 -24 -25 -34 -28 -17 -29 -16 -48 7 -16 19 -22 21 -34 11 -12 -10
-19 -10 -27 -2 -7 7 -21 12 -31 12 -16 0 -17 -3 -7 -15 11 -13 8 -15 -14 -15
-15 0 -25 -4 -21 -9 12 -20 -14 -20 -39 0 -24 18 -30 20 -56 9 -17 -7 -30 -18
-30 -24 0 -6 -7 -3 -14 7 -20 26 -34 21 -68 -28 -18 -25 -43 -48 -56 -52 -30
-7 -113 2 -121 14 -10 15 -41 24 -41 12 0 -6 -6 -9 -13 -6 -8 3 -20 2 -27 -3
-7 -4 -25 -4 -39 0 -14 5 -44 11 -65 14 -34 4 -37 3 -25 -8 8 -8 39 -21 69
-31 30 -9 73 -29 95 -45 41 -28 140 -47 151 -28 3 5 19 6 34 3 18 -4 31 -2 37
7 11 18 106 50 126 43 9 -4 23 -17 31 -31 14 -20 20 -22 40 -13 17 8 29 8 45
-1 12 -6 31 -8 41 -5 12 4 20 2 20 -5 0 -6 5 -8 10 -5 6 4 17 1 25 -5 21 -18
37 -8 50 31 9 26 18 34 36 35 31 0 51 12 43 26 -4 7 0 7 12 0 28 -14 103 -22
110 -11 3 5 14 9 24 9 24 0 31 11 23 39 -5 19 -10 21 -35 16 -27 -6 -29 -5
-19 12 14 27 38 46 49 39 6 -3 12 3 15 14 3 11 1 23 -4 26 -12 7 -2 43 17 62
8 7 14 18 14 23 0 5 12 6 28 3 24 -7 26 -6 13 10 -11 13 -11 22 -3 41 14 29
13 30 -15 10z m-283 -242 c0 -11 -63 -53 -78 -53 -25 0 -11 32 21 45 36 16 57
19 57 8z"/>
<path d="M3227 4976 c-16 -13 -16 -14 7 -30 36 -23 48 -20 44 11 -3 31 -24 39
-51 19z"/>
<path d="M3012 4970 c-41 -9 -49 -17 -35 -31 8 -8 22 -9 40 -3 15 4 33 8 40 9
20 1 28 16 13 25 -8 6 -17 9 -20 9 -3 -1 -20 -5 -38 -9z"/>
<path d="M2645 4939 c-4 -6 -5 -13 -2 -16 8 -7 47 7 47 18 0 13 -37 11 -45 -2z"/>
<path d="M2585 4901 c-3 -6 -15 -11 -25 -11 -10 0 -22 -4 -25 -10 -4 -6 6 -10
23 -10 18 0 32 6 36 16 8 20 1 30 -9 15z"/>
<path d="M3203 4873 c-34 -12 10 -67 49 -61 13 2 24 11 26 22 3 14 0 17 -12
13 -10 -4 -19 -1 -22 7 -7 17 -24 25 -41 19z"/>
<path d="M3060 4846 c0 -3 15 -13 33 -22 17 -9 36 -23 40 -30 14 -25 30 -16
22 13 -4 16 -7 29 -8 29 -7 6 -87 15 -87 10z"/>
<path d="M882 4801 c-17 -10 -2 -61 18 -61 10 0 25 -11 34 -25 9 -14 22 -25
30 -25 7 0 24 -10 38 -23 20 -19 22 -25 12 -35 -16 -15 -76 -18 -121 -8 -28 7
-33 5 -47 -22 -13 -26 -14 -32 -1 -42 11 -9 21 -7 46 11 21 15 45 22 75 21 33
0 46 5 60 23 17 22 19 23 48 8 21 -11 43 -13 80 -8 75 10 108 11 134 2 16 -6
22 -5 22 6 0 15 20 27 46 27 15 0 33 12 57 38 29 31 38 42 35 43 -40 8 -64 5
-89 -13 -16 -12 -29 -28 -29 -35 0 -7 -5 -13 -12 -13 -6 0 -19 -7 -29 -16 -14
-12 -22 -13 -39 -4 -17 9 -25 8 -39 -4 -23 -21 -38 -20 -51 4 -8 15 -17 19
-34 14 -13 -3 -27 -1 -31 5 -3 6 -10 9 -15 6 -11 -7 -60 12 -60 24 0 5 9 11
20 14 11 3 20 12 20 21 0 17 -8 19 -53 16 -19 -1 -34 6 -47 23 -20 25 -60 39
-78 28z"/>
<path d="M2954 4771 c-8 -8 -4 -22 5 -17 5 3 11 -1 15 -9 9 -25 106 -12 106
14 0 9 -118 20 -126 12z"/>
<path d="M3386 4724 c-5 -13 -9 -14 -21 -4 -8 7 -15 8 -15 3 0 -6 -17 -18 -39
-27 -34 -16 -41 -16 -67 -3 -16 8 -46 15 -68 15 -21 1 -46 4 -56 7 -9 3 -28
-4 -43 -15 -14 -11 -28 -20 -32 -20 -10 0 -44 -43 -45 -57 0 -6 16 -17 35 -24
19 -7 35 -16 35 -20 0 -4 10 -5 22 -1 13 3 19 1 15 -5 -4 -6 2 -22 13 -36 11
-14 20 -30 20 -36 0 -6 12 -17 28 -23 l27 -12 -32 -4 c-24 -2 -33 -8 -33 -22
0 -33 -12 -50 -34 -50 -13 0 -26 -3 -29 -6 -10 -11 33 -65 60 -75 20 -7 24
-15 21 -33 -4 -18 0 -26 14 -29 10 -3 18 -14 18 -26 0 -11 4 -30 9 -43 20 -49
51 -176 60 -238 6 -50 5 -67 -5 -78 -8 -7 -14 -22 -14 -32 0 -13 -5 -17 -15
-14 -8 4 -15 16 -15 28 0 16 -2 18 -9 7 -8 -12 -16 -10 -47 14 -35 27 -38 27
-50 10 -12 -16 -17 -16 -59 -4 -25 7 -45 19 -45 26 0 9 -20 13 -73 13 -39 0
-88 4 -107 10 -22 6 -36 6 -40 0 -4 -6 -33 -10 -66 -9 -68 2 -124 -15 -237
-71 -108 -54 -121 -80 -108 -223 l8 -87 48 -43 c63 -56 74 -61 114 -58 23 1
54 -9 95 -31 56 -30 69 -33 148 -33 83 0 89 1 115 29 27 27 27 28 6 23 -19 -4
-23 -1 -23 18 0 15 13 32 41 51 37 25 42 26 50 11 14 -24 45 -21 114 13 33 16
65 30 71 30 6 0 24 11 40 25 16 14 32 25 35 25 4 0 12 14 19 30 7 17 16 30 20
30 16 0 29 -137 16 -158 -4 -7 -3 -12 2 -12 6 0 7 -15 2 -37 -5 -21 -11 -67
-15 -103 -4 -36 -11 -67 -16 -70 -5 -3 -9 -21 -10 -40 -2 -23 -13 -47 -34 -70
-31 -34 -62 -97 -57 -114 2 -5 -4 -6 -11 -3 -18 7 -37 -11 -37 -35 0 -10 -11
-23 -25 -30 -13 -6 -29 -23 -34 -37 -13 -31 -30 -58 -53 -83 -21 -21 -23 -38
-5 -38 6 0 4 -5 -5 -11 -10 -5 -18 -17 -18 -24 0 -8 -9 -24 -20 -35 -11 -11
-16 -20 -10 -20 5 0 7 -7 4 -15 -8 -21 -30 -19 -47 5 -14 20 -15 20 -26 -8 -7
-16 -12 -51 -11 -78 1 -76 -1 -87 -26 -117 -13 -16 -24 -33 -24 -38 0 -6 -7
-3 -16 5 -18 19 -26 20 -40 6 -5 -5 -38 -13 -73 -16 -54 -6 -64 -10 -72 -32
-8 -21 -13 -23 -44 -18 -40 8 -105 43 -105 57 0 5 -9 9 -20 9 -27 0 -25 16 5
56 14 18 25 38 25 44 0 6 15 17 33 25 41 17 53 31 63 70 4 17 16 49 26 73 17
37 17 47 7 71 -10 23 -21 30 -52 34 -22 3 -43 11 -47 17 -5 8 -12 7 -24 -5 -9
-9 -16 -20 -16 -25 0 -5 -6 -7 -13 -4 -8 3 -19 -2 -26 -10 -7 -9 -29 -18 -47
-22 -19 -3 -32 -9 -29 -12 3 -3 -12 -12 -32 -19 -46 -16 -116 -9 -135 14 -11
14 -11 16 2 8 10 -5 8 -1 -4 13 -18 20 -43 21 -31 1 9 -14 -5 -11 -21 6 -18
18 -49 19 -110 4 -52 -13 -62 -29 -45 -66 28 -62 70 -101 127 -119 67 -21 158
-96 149 -124 -4 -13 -1 -17 12 -16 12 0 18 -6 18 -19 0 -20 -32 -24 -237 -26
-16 0 -28 -4 -28 -9 0 -6 -9 -10 -20 -10 -11 0 -23 -7 -26 -15 -10 -25 -61
-19 -80 10 -23 36 -60 43 -85 16 -18 -20 -19 -23 -4 -44 17 -24 7 -23 243 -31
104 -4 142 -10 179 -26 47 -20 118 -27 127 -11 15 23 71 20 158 -10 78 -27 93
-30 119 -19 26 11 32 10 44 -6 18 -24 18 -43 2 -82 -10 -25 -17 -29 -44 -27
-17 1 -44 9 -59 17 -21 10 -66 13 -166 12 -76 -1 -138 2 -138 6 0 5 -8 6 -19
3 -10 -3 -22 0 -25 6 -8 13 -56 15 -56 3 0 -5 -13 -8 -30 -7 -16 1 -30 -2 -30
-6 0 -8 -75 12 -86 24 -4 4 -14 7 -22 7 -12 0 -12 -3 -2 -15 11 -13 10 -14 -3
-9 -21 8 -81 -27 -64 -38 9 -6 9 -10 1 -15 -21 -14 -27 -53 -9 -59 9 -4 13
-13 10 -24 -7 -21 13 -28 75 -24 49 3 80 -4 180 -43 64 -25 67 -26 183 -14 65
6 121 12 125 12 28 4 51 -17 61 -54 6 -27 7 -43 1 -45 -6 -2 -8 -8 -4 -13 3
-5 -4 -9 -15 -9 -10 0 -21 -6 -23 -12 -3 -9 -27 -13 -69 -14 -36 0 -70 -3 -76
-7 -6 -4 -23 -3 -38 3 -42 16 -106 12 -173 -11 -55 -18 -67 -19 -95 -8 -18 7
-35 18 -39 23 -5 8 -8 8 -8 0 0 -6 -27 -10 -70 -10 -39 0 -70 3 -70 7 0 4 -9
10 -20 14 -23 7 -60 64 -60 94 0 11 -3 21 -8 21 -4 0 -12 20 -18 45 -8 35 -7
47 4 59 12 12 10 13 -10 9 -26 -5 -27 -1 -30 95 -1 17 -5 32 -10 32 -4 0 -8
11 -8 24 0 19 -4 22 -24 19 -31 -6 -44 15 -15 25 16 6 19 11 10 16 -7 5 -18 3
-24 -3 -17 -17 -29 -13 -22 9 5 16 2 20 -19 20 -19 0 -26 6 -31 29 -7 33 -26
53 -46 49 -8 -2 -15 10 -19 32 -5 34 -7 35 -44 33 -46 -3 -67 18 -59 58 3 18
0 28 -10 32 -9 3 -18 26 -22 56 -4 28 -11 51 -17 51 -6 0 -8 10 -5 21 6 24
-18 69 -38 69 -7 0 -23 16 -36 35 -13 19 -27 35 -31 35 -5 0 -8 7 -8 15 0 8
-9 24 -20 35 -11 11 -23 35 -27 53 -8 43 -21 67 -50 95 -14 13 -22 29 -19 37
3 8 1 15 -4 15 -6 0 -10 -8 -10 -17 -1 -39 -21 17 -23 62 -1 25 -6 45 -12 45
-5 0 -11 12 -12 26 0 15 -6 29 -11 33 -23 14 -65 166 -66 239 0 54 -4 71 -13
68 -7 -3 -26 0 -42 5 -30 11 -30 11 -16 45 7 18 13 47 13 64 -1 40 5 45 36 24
31 -20 40 -14 42 27 1 23 -4 33 -26 44 -34 17 -43 49 -29 99 10 34 12 36 27
23 24 -22 75 -27 97 -11 13 9 19 28 20 59 2 43 0 47 -30 59 -27 12 -33 20 -38
57 -7 51 -4 57 18 35 35 -35 86 -14 121 50 27 48 -26 122 -68 95 -10 -6 -28
-11 -40 -11 -19 0 -20 2 -8 11 11 8 12 12 3 16 -7 2 -13 11 -13 19 0 15 -26
19 -34 5 -3 -5 -38 -8 -78 -7 -63 1 -73 4 -78 21 -6 23 -39 29 -54 10 -6 -8
-23 -17 -38 -21 -25 -5 -28 -3 -28 19 0 14 7 28 16 31 9 4 14 9 11 13 -4 3
-13 0 -22 -7 -12 -10 -19 -8 -40 11 -13 13 -25 30 -25 37 0 13 -20 17 -20 5
-1 -5 -5 -28 -9 -52 -8 -37 -5 -52 12 -88 12 -23 29 -43 37 -44 10 0 11 -2 3
-6 -14 -5 -18 -43 -5 -43 4 0 13 5 19 11 17 17 61 0 68 -28 6 -27 -17 -63 -42
-63 -7 0 -13 -4 -13 -10 0 -5 -4 -10 -10 -10 -5 0 -10 11 -10 25 0 27 -17 34
-26 10 -4 -10 -20 -15 -45 -15 -35 0 -39 -2 -44 -34 -5 -23 1 -59 19 -115 14
-45 26 -91 26 -102 0 -12 8 -33 19 -47 10 -15 26 -43 34 -62 9 -19 28 -49 42
-67 l26 -31 -23 5 c-13 3 -40 24 -60 47 -20 22 -39 38 -43 34 -3 -3 1 -47 10
-98 16 -85 18 -90 34 -76 21 19 37 20 47 4 4 -6 -7 -22 -27 -39 l-33 -27 18
-79 c20 -81 61 -166 96 -198 36 -33 23 7 -20 58 -21 26 -37 54 -34 61 6 16 46
26 66 16 7 -4 25 -10 41 -14 21 -5 27 -3 27 10 0 18 37 74 50 74 17 0 41 -52
48 -108 l8 -59 -33 10 c-18 6 -35 19 -39 29 -5 17 -24 26 -24 11 0 -15 40 -73
50 -73 5 0 10 -8 10 -18 0 -23 46 -47 54 -29 2 7 5 -5 5 -25 1 -20 5 -39 10
-42 4 -3 11 -23 14 -43 4 -21 15 -55 26 -75 10 -21 15 -38 11 -38 -6 0 -17
-27 -20 -49 0 -3 7 -6 17 -7 27 -4 40 -29 52 -97 6 -33 31 -126 57 -206 25
-81 52 -168 61 -196 8 -27 25 -66 37 -85 43 -67 137 -263 132 -277 -3 -7 -1
-13 4 -13 17 0 42 -73 32 -91 -14 -23 -3 -72 15 -65 24 10 56 -29 49 -58 -4
-18 -1 -31 14 -46 11 -11 20 -24 20 -29 0 -5 7 -14 15 -21 8 -7 12 -17 9 -22
-3 -5 2 -18 11 -28 14 -16 21 -34 24 -62 1 -5 8 -8 17 -8 8 0 12 -4 9 -10 -3
-5 -14 -10 -24 -10 -10 0 -24 -7 -31 -15 -10 -12 -7 -19 16 -40 15 -14 31 -26
35 -26 5 -1 13 -2 19 -3 5 0 15 -7 22 -14 6 -6 20 -12 30 -12 10 0 18 -7 18
-15 0 -8 6 -24 13 -35 10 -17 9 -22 -2 -29 -19 -12 -6 -41 19 -41 14 0 20 -7
20 -23 0 -33 7 -37 41 -20 17 8 33 12 37 8 4 -4 1 -10 -5 -12 -18 -6 -16 -23
2 -23 8 0 15 -6 15 -14 0 -8 16 -20 35 -26 19 -6 35 -16 35 -21 0 -5 6 -9 14
-9 27 0 27 -20 1 -30 -33 -12 -28 -31 11 -43 36 -12 59 -44 57 -77 -1 -16 0
-18 3 -7 8 25 42 13 80 -29 17 -19 36 -34 42 -34 6 0 14 -11 18 -25 3 -14 11
-25 18 -25 6 0 36 -23 66 -50 30 -28 60 -50 68 -50 19 0 112 96 112 115 0 9 9
19 20 22 11 3 20 11 20 19 0 7 12 19 27 26 15 7 34 26 41 41 7 15 19 27 26 27
7 0 27 15 45 33 39 40 69 67 76 67 19 1 35 15 35 31 0 18 86 109 103 109 4 0
7 7 7 15 0 8 6 15 14 15 8 0 28 11 44 25 17 14 34 25 40 25 5 0 13 35 17 78 4
42 16 118 27 167 11 50 30 142 43 205 84 408 164 686 324 1120 24 63 49 137
56 165 21 75 71 169 120 226 56 66 96 164 103 253 3 50 2 67 -7 62 -6 -4 -11
-14 -11 -22 0 -8 -4 -12 -10 -9 -5 3 -10 26 -10 51 0 41 -1 44 -16 30 -31 -32
-43 -19 -34 38 3 24 2 54 -2 67 -9 23 -10 23 -24 5 -18 -25 -22 -19 -17 26 4
26 9 35 19 31 8 -3 21 0 28 7 12 9 18 6 32 -15 9 -14 22 -24 28 -22 6 3 18 -2
27 -9 14 -13 17 -10 27 23 12 40 32 156 32 184 0 10 -7 16 -17 15 -13 -1 -19
8 -21 32 -3 26 -7 32 -28 32 -24 0 -29 11 -25 57 1 17 -3 20 -18 16 -16 -4
-21 1 -26 23 -13 59 -64 132 -84 120 -4 -3 -19 1 -34 9 -16 8 -29 10 -32 4
-11 -16 -26 -9 -23 11 2 10 -5 25 -15 32 -10 8 -21 32 -24 53 -4 35 -11 43
-44 58 -32 15 -43 17 -55 7 -8 -7 -17 -10 -21 -6 -11 11 10 23 48 29 28 4 42
1 58 -14 18 -17 22 -18 27 -5 4 10 18 16 35 16 31 0 36 9 17 28 -9 9 -8 12 6
12 10 0 26 10 36 22 15 19 20 20 34 9 14 -12 16 -10 16 17 0 22 6 32 20 37 22
7 24 13 11 34 -5 7 -14 11 -20 7 -5 -4 -16 2 -23 14 -15 24 -34 26 -42 4z
m-154 -256 c-15 -15 -26 -4 -18 18 5 13 9 15 18 6 9 -9 9 -15 0 -24z m-56 -74
c-8 -20 -36 -18 -36 3 0 9 8 25 18 36 17 19 17 19 20 -3 2 -12 1 -28 -2 -36z
m60 -19 c-2 -7 0 -17 5 -22 5 -5 11 -28 13 -51 3 -33 0 -44 -13 -52 -12 -6
-18 -5 -19 3 0 7 -3 36 -5 64 -2 29 -6 56 -10 59 -3 3 -3 12 0 20 4 11 8 12
20 3 7 -7 12 -18 9 -24z m-2138 -174 c3 -8 -1 -12 -9 -9 -7 2 -15 10 -17 17
-3 8 1 12 9 9 7 -2 15 -10 17 -17z m2367 0 c3 -5 1 -12 -5 -16 -5 -3 -10 1
-10 9 0 18 6 21 15 7z m-2629 -126 c1 -49 -2 -54 -21 -28 -11 14 -10 23 1 45
8 16 16 28 17 28 1 0 2 -20 3 -45z m2494 -4 c0 -12 -20 -25 -27 -18 -7 7 6 27
18 27 5 0 9 -4 9 -9z m-2632 -51 c-1 -16 4 -36 11 -43 15 -18 4 -47 -18 -47
-9 1 -29 7 -45 13 -30 13 -30 13 -10 33 10 10 25 32 31 47 16 36 32 34 31 -3z
m57 -20 c3 -5 1 -10 -4 -10 -6 0 -11 5 -11 10 0 6 2 10 4 10 3 0 8 -4 11 -10z
m60 -120 c-8 -24 7 -26 25 -5 7 9 15 14 17 12 7 -8 -17 -57 -28 -57 -6 0 -24
-9 -40 -21 l-29 -20 -12 27 c-11 24 -10 28 6 38 11 6 26 19 35 29 21 23 34 22
26 -3z m2535 -190 c0 -53 -4 -71 -16 -78 -9 -5 -15 -13 -14 -18 1 -5 -3 -10
-9 -12 -11 -4 -15 16 -12 48 3 31 36 130 44 130 4 0 7 -31 7 -70z m-511 46
c-11 -9 -69 -14 -69 -6 0 6 17 10 37 10 20 0 34 -2 32 -4z m-202 -261 c8 -22
-6 -33 -17 -15 -13 20 -12 30 0 30 6 0 13 -7 17 -15z m61 -7 c7 -7 40 -12 74
-13 35 0 64 -4 66 -8 6 -18 0 -26 -28 -35 -22 -8 -36 -7 -60 4 -16 9 -32 19
-35 25 -4 5 -17 9 -31 9 -23 0 -31 10 -17 23 9 10 17 9 31 -5z m657 3 c3 -5 1
-12 -5 -16 -5 -3 -10 1 -10 9 0 18 6 21 15 7z m-24 -82 c-17 -27 -21 -30 -21
-14 0 24 32 74 37 58 2 -6 -5 -26 -16 -44z m-1871 -919 c0 -5 -4 -10 -10 -10
-5 0 -10 5 -10 10 0 6 5 10 10 10 6 0 10 -4 10 -10z m1417 -717 c-3 -10 -5 -4
-5 12 0 17 2 24 5 18 2 -7 2 -21 0 -30z m-15 -63 c4 -26 1 -30 -19 -30 -18 0
-22 5 -20 21 3 16 21 37 33 39 1 0 4 -13 6 -30z m-47 -60 c-3 -5 -10 -10 -16
-10 -5 0 -9 5 -9 10 0 6 7 10 16 10 8 0 12 -4 9 -10z m-31 -89 c4 -5 0 -11 -6
-14 -10 -3 -10 -7 0 -20 16 -18 8 -37 -14 -37 -22 0 -11 -24 12 -29 18 -3 34
-18 34 -33 0 -5 -11 -8 -25 -8 -16 0 -25 6 -25 15 0 8 -7 15 -15 15 -7 0 -19
8 -24 18 -6 9 -11 13 -11 9 0 -5 8 -22 17 -38 19 -31 18 -33 -15 -44 -23 -7
-24 -5 -21 37 3 49 18 90 30 82 8 -5 35 36 31 49 -3 10 26 9 32 -2z m76 -8 c0
-26 -16 -47 -29 -39 -12 8 -15 39 -4 49 13 13 33 7 33 -10z m-210 -344 c0 -6
-4 -7 -10 -4 -5 3 -10 11 -10 16 0 6 5 7 10 4 6 -3 10 -11 10 -16z"/>
<path d="M2680 4610 c-12 -8 -11 -10 8 -10 12 0 22 5 22 10 0 13 -11 13 -30 0z"/>
<path d="M2476 4591 c-4 -7 -5 -15 -2 -18 9 -9 19 4 14 18 -4 11 -6 11 -12 0z"/>
<path d="M2620 4541 c0 -16 25 -29 68 -36 27 -4 42 -2 42 5 0 13 -40 29 -56
23 -7 -2 -15 0 -19 6 -8 13 -35 15 -35 2z"/>
<path d="M3366 4525 c-3 -9 -4 -21 0 -26 3 -5 0 -9 -7 -9 -9 0 -9 -3 0 -14 6
-7 8 -22 5 -32 -5 -14 -4 -16 5 -8 15 14 23 72 12 92 -7 12 -9 12 -15 -3z"/>
<path d="M1067 4510 c-16 -5 -34 -15 -40 -23 -18 -22 -66 -27 -106 -10 -34 15
-36 14 -59 -13 -17 -21 -21 -37 -17 -58 7 -41 12 -43 39 -17 23 21 29 22 114
16 76 -6 94 -5 106 8 12 12 24 13 46 7 17 -5 31 -6 31 -2 1 4 2 14 3 22 0 8 7
14 14 12 8 -1 12 5 10 15 -4 23 -38 30 -38 9 0 -9 -7 -16 -16 -16 -9 0 -14 7
-12 18 6 39 -18 49 -75 32z m53 -26 c0 -8 -7 -14 -15 -14 -15 0 -21 21 -9 33
10 9 24 -2 24 -19z"/>
<path d="M2435 4510 c3 -5 10 -10 16 -10 5 0 9 5 9 10 0 6 -7 10 -16 10 -8 0
-12 -4 -9 -10z"/>
<path d="M2742 4498 c-19 -19 -14 -30 11 -26 12 2 22 9 22 17 0 19 -18 24 -33
9z"/>
<path d="M1585 4490 c3 -5 12 -7 20 -3 21 7 19 13 -6 13 -11 0 -18 -4 -14 -10z"/>
<path d="M2906 4467 c-16 -28 -16 -31 1 -47 21 -19 89 -25 99 -8 14 22 13 78
-1 78 -7 0 -15 -6 -18 -12 -3 -10 -11 -9 -34 3 -29 16 -30 16 -47 -14z"/>
<path d="M3405 4441 c5 -41 21 -69 71 -123 38 -41 45 -45 53 -30 9 16 11 15
25 -3 17 -23 21 -21 30 18 5 23 3 27 -14 27 -11 0 -20 4 -20 10 0 5 7 7 15 4
11 -5 13 -2 9 10 -3 9 -12 16 -20 16 -8 0 -14 9 -14 20 0 33 -37 62 -69 55
-19 -4 -32 -1 -41 10 -19 23 -29 18 -25 -14z m120 -91 c14 -27 14 -30 0 -30
-8 0 -15 3 -15 8 0 4 -3 17 -6 30 -9 31 3 27 21 -8z"/>
<path d="M1240 4380 c0 -5 5 -10 11 -10 5 0 7 5 4 10 -3 6 -8 10 -11 10 -2 0
-4 -4 -4 -10z"/>
<path d="M787 4366 c-3 -8 0 -19 6 -24 9 -8 12 -4 12 14 0 27 -10 32 -18 10z"/>
<path d="M921 4364 c0 -11 3 -14 6 -6 3 7 2 16 -1 19 -3 4 -6 -2 -5 -13z"/>
<path d="M1519 3912 c-20 -14 -68 -13 -134 4 -19 5 -26 2 -32 -12 -10 -29 -40
-54 -63 -54 -51 0 -134 -109 -117 -154 3 -8 0 -17 -8 -20 -26 -9 -35 -41 -20
-69 7 -14 16 -38 19 -54 9 -40 69 -64 177 -71 80 -4 86 -3 91 15 7 26 56 36
82 17 11 -8 27 -14 36 -14 8 0 32 -9 53 -20 45 -24 88 -25 156 -3 100 32 68
-18 -36 -57 -43 -16 -74 -20 -125 -18 -37 2 -68 0 -68 -4 0 -42 225 -40 298 2
26 16 44 20 72 15 52 -9 134 30 187 88 44 47 48 57 58 142 3 28 8 66 10 86 4
34 1 39 -55 83 -33 25 -63 46 -68 46 -4 0 -20 7 -36 15 -50 26 -349 65 -360
46 -3 -4 -26 -5 -51 -1 -32 5 -51 3 -66 -8z m116 -182 c-3 -5 -17 -10 -31 -10
-13 0 -24 5 -24 10 0 6 14 10 31 10 17 0 28 -4 24 -10z m-6 -128 c7 -13 6 -23
-2 -32 -9 -10 -9 -13 0 -17 16 -6 5 -33 -13 -33 -8 0 -14 7 -14 15 0 8 -7 15
-15 15 -22 0 -20 57 3 63 29 8 31 7 41 -11z m61 -22 c0 -5 -4 -10 -9 -10 -5 0
-18 -3 -28 -6 -16 -5 -16 -4 1 10 23 18 36 20 36 6z"/>
<path d="M1086 3465 c-12 -19 -13 -25 -3 -25 11 0 47 34 47 45 0 15 -30 1 -44
-20z"/>
<path d="M810 3062 c0 -16 25 -32 51 -32 27 0 54 21 42 33 -9 10 -93 9 -93 -1z"/>
<path d="M935 2880 c3 -5 11 -10 16 -10 6 0 7 5 4 10 -3 6 -11 10 -16 10 -6 0
-7 -4 -4 -10z"/>
<path d="M2932 2810 c-10 -17 -10 -20 4 -20 8 0 12 5 9 10 -3 6 -1 10 4 10 6
0 11 5 11 10 0 17 -14 11 -28 -10z"/>
<path d="M1780 1210 c0 -5 7 -10 15 -10 8 0 15 5 15 10 0 6 -7 10 -15 10 -8 0
-15 -4 -15 -10z"/>
<path d="M1830 1130 c20 -13 43 -13 35 0 -3 6 -16 10 -28 10 -18 0 -19 -2 -7
-10z"/>
<path d="M1855 1060 c3 -5 8 -10 11 -10 2 0 4 5 4 10 0 6 -5 10 -11 10 -5 0
-7 -4 -4 -10z"/>
<path d="M980 959 c172 -220 577 -652 673 -717 66 -46 58 -26 -10 23 -64 45
-262 257 -383 409 -25 31 -73 84 -107 118 -34 34 -59 66 -56 71 3 6 1 7 -5 3
-6 -3 -16 3 -22 15 -17 30 -80 98 -104 111 -14 8 -11 -1 14 -33z"/>
<path d="M2668 588 c-133 -151 -254 -264 -349 -323 -9 -5 -51 -34 -94 -63 -68
-45 -83 -51 -112 -46 -26 5 -33 3 -33 -10 0 -9 -3 -16 -7 -17 -5 0 -19 -2 -33
-5 -86 -14 -169 -15 -191 -3 -13 7 -29 14 -36 15 -6 1 -30 17 -52 35 -23 18
-43 30 -46 27 -7 -7 117 -96 159 -113 48 -20 152 -19 223 3 181 57 409 254
616 535 44 59 24 43 -45 -35z"/>
</g>
</svg>
